# xmcd
#
# Track frame offsets:
#	150
#	12558
#	25753
#	34876
#	50456
#	61607
#	75425
#	85620
#	96813
#	108358
#	121681
#	131366
#	143519
#	156309
#	170742
#	182100
#	193521
#	204924
#	217804
#	232949
#	247644
#
# Disc length: 3450 seconds
#
# Revision: 1
# Processed by: cddbd v1.5.2PL0 Copyright (c) Steve Scherf et al.
# Submitted via: EZCDAudioConverter 3.1.0.1
#
DISCID=fb0d7815
DTITLE=Narvel Felts - Doin' What I Feel and The Touch Of Felts
DYEAR=1977
DGENRE=Country
TTITLE0=My Prayer
TTITLE1=My Good Thing's Gone
TTITLE2=Oh Boy
TTITLE3=I'm Getting High Remembering
TTITLE4=Me
TTITLE5=Once The Magic Is Gone
TTITLE6=Lonely Kind Of Love
TTITLE7=Moments To Remember+Blueberry Hill+I Don't Hurt Anymore+Don't Worry
TTITLE8=If Ever Two Were One (Then Surely We Are)
TTITLE9=Garden Of Eden
TTITLE10=Compliments Of My Heart
TTITLE11=Just For Me
TTITLE12=Warm And Tender Love
TTITLE13=Empty Chair
TTITLE14=Remember
TTITLE15=I Don't Hurt Anymore
TTITLE16=The Feelin's Right
TTITLE17=Somewhere Between The Laughter And The Tears
TTITLE18=Stand By Me
TTITLE19=Another Crazy Dream
TTITLE20=When We Were Together
EXTD=
EXTT0=
EXTT1=
EXTT2=
EXTT3=
EXTT4=
EXTT5=
EXTT6=
EXTT7=
EXTT8=
EXTT9=
EXTT10=
EXTT11=
EXTT12=
EXTT13=
EXTT14=
EXTT15=
EXTT16=
EXTT17=
EXTT18=
EXTT19=
EXTT20=
PLAYORDER=
